<svg xmlns="http://www.w3.org/2000/svg" viewBox="0 0 65.414 68.991">
  <defs>
    <style>
      .cls-1 {
        fill: rgba(254,62,104,0.42);
      }

      .cls-2 {
        fill: #2b3245;
        stroke: #2b3246;
        stroke-width: 0.5px;
      }
    </style>
  </defs>
  <g id="segui_ico" transform="translate(-1323.029 -2761.487)">
    <ellipse id="Ellipse_12" data-name="Ellipse 12" class="cls-1" cx="28.362" cy="28.362" rx="28.362" ry="28.362" transform="translate(1326.838 2767.71)"/>
    <g id="shuffle" transform="translate(1323.279 2761.739)">
      <path id="Path_27" data-name="Path 27" class="cls-2" d="M11.494,19.988h2.988a16.418,16.418,0,0,1,10.962,4.182,1.494,1.494,0,1,0,1.993-2.226A19.4,19.4,0,0,0,14.483,17H11.494a1.494,1.494,0,1,0,0,2.988Z" transform="translate(-10 -3.804)"/>
      <path id="Path_28" data-name="Path 28" class="cls-2" d="M52.71,9.685a1.68,1.68,0,0,0,.36,2.321L66.952,22.3H54.029a21.435,21.435,0,0,0-21.2,21.616A18.138,18.138,0,0,1,14.892,62.21H11.631a1.663,1.663,0,0,0,0,3.326h3.261a21.435,21.435,0,0,0,21.2-21.616A18.138,18.138,0,0,1,54.029,25.628H66.952L53.07,35.923a1.682,1.682,0,0,0-.36,2.321,1.61,1.61,0,0,0,2.278.367L74.739,23.966,54.988,9.318A1.608,1.608,0,0,0,52.71,9.685Z" transform="translate(-10 -8.999)"/>
      <path id="Path_29" data-name="Path 29" class="cls-2" d="M40.209,33.616a1.491,1.491,0,0,0,.33,2.086l12.72,9.252H41.418a16.423,16.423,0,0,1-10.875-4.106,1.494,1.494,0,1,0-1.975,2.241,19.4,19.4,0,0,0,12.85,4.853H53.26l-12.72,9.251A1.494,1.494,0,0,0,42.3,59.609l18.1-13.161L42.3,33.286A1.492,1.492,0,0,0,40.209,33.616Z" transform="translate(4.344 8.594)"/>
    </g>
  </g>
</svg>
