<svg xmlns="http://www.w3.org/2000/svg" viewBox="0 0 43.949 61.593">
    <defs>
        <style>
            .cls-1{fill:#fe3e68}
        </style>
    </defs>
    <g id="tap_ico" transform="translate(-1518 -218)">
        <g id="tap" transform="translate(1517.921 217.983)">
            <path id="Path_56" d="M.284 28.1a3.214 3.214 0 0 0 .93 3.579c1.96 1.961 5.99 9.04 7.984 14.028 1.361 3.4 4.351 6.741 6.618 8.944a5.1 5.1 0 0 1 1.521 3.643v.375a3.08 3.08 0 0 0 3.08 3.08h16.425a3.08 3.08 0 0 0 3.08-3.08v-3.153a.942.942 0 0 1 .274-.7c3.789-3.465 3.832-9.248 3.832-9.493v-16.25a4.216 4.216 0 0 0-3.807-4.273 4.1 4.1 0 0 0-2.352.559v-1.6a4.083 4.083 0 0 0-6.2-3.512 4.058 4.058 0 0 0-6.116-3.1v-1.7a8.109 8.109 0 0 0 4.107-7.083 8.357 8.357 0 0 0-3.78-6.915 7.891 7.891 0 0 0-4.433-1.3 8.212 8.212 0 0 0-8.212 8.212 8.11 8.11 0 0 0 4.106 7.083v16.535a11.357 11.357 0 0 1-.489 3.58 1.038 1.038 0 0 1-.74.69.989.989 0 0 1-.924-.242 14.591 14.591 0 0 1-2.123-2.544C11.281 30.8 6.8 25.82 3.992 25.82A4.021 4.021 0 0 0 .284 28.1zm15-19.731a6.159 6.159 0 1 1 12.318 0 6.1 6.1 0 0 1-2.053 4.6v-4.6a4.106 4.106 0 1 0-8.212 0v4.6a6.1 6.1 0 0 1-2.052-4.6zM11.351 34.6a16.679 16.679 0 0 0 2.426 2.9 3.037 3.037 0 0 0 2.831.738 3.094 3.094 0 0 0 2.187-2.024 13.37 13.37 0 0 0 .6-4.237V8.368a2.053 2.053 0 1 1 4.106 0v21.558a1.027 1.027 0 1 0 2.053 0v-9.239a2.053 2.053 0 0 1 4.107 0v9.239a1.027 1.027 0 1 0 2.053 0v-6.159a2.053 2.053 0 1 1 4.106 0v7.186a1.027 1.027 0 0 0 2.053 0V28.9a2.036 2.036 0 0 1 .6-1.451 2.077 2.077 0 0 1 1.6-.6 2.186 2.186 0 0 1 1.9 2.221v16.254c0 .05-.052 5.133-3.166 7.979a3 3 0 0 0-.94 2.213v3.154a1.027 1.027 0 0 1-1.025 1.03H20.417a1.027 1.027 0 0 1-1.027-1.027v-.375a7.165 7.165 0 0 0-2.144-5.116c-1.739-1.688-4.85-5.006-6.141-8.235-2.113-5.279-6.293-12.569-8.44-14.716-.489-.488-.652-.94-.486-1.343a2.024 2.024 0 0 1 1.813-1.011c1.4 0 5.178 3.459 7.358 6.729zm0 0" class="cls-1" data-name="Path 56" transform="translate(0 -.139)"/>
            <path id="Path_58" d="M306.346 386.936a.666.666 0 0 0 .472-.2 2.709 2.709 0 0 0 .863-1.807.659.659 0 0 0-.651-.658.671.671 0 0 0-.683.642 1.468 1.468 0 0 1-.472.878.667.667 0 0 0 .472 1.139zm0 0" class="cls-1" data-name="Path 58" transform="translate(-266.322 -336.899)"/>
            <path id="Path_59" d="M178.343 462.291h.667a.667.667 0 1 0 0-1.335h-.667a.667.667 0 1 0 0 1.335zm0 0" class="cls-1" data-name="Path 59" transform="translate(-155.669 -403.351)"/>
        </g>
    </g>
</svg>
